<svg xmlns="http://www.w3.org/2000/svg" width="758" height="107" viewBox="0 0 758 107" fill="none"><g clip-path="url(#clip0_1_24)"><path d="M21.6947 59.1456V30.4593L13.1239 34.3711C13.1239 34.3711 10.9163 39.326 11.3059 46.4975C11.5656 52.1044 14.6823 58.7544 17.1496 61.623L21.6947 59.1456ZM46.8875 0.0779843C48.9653 0.208376 52.3416 1.25151 54.809 3.46818C57.536 6.07602 58.0554 9.98777 57.1464 13.6387C56.3673 16.7682 55.3284 18.4633 52.0819 20.6799C48.8354 22.8966 44.8097 22.7662 44.8097 22.7662V36.5877L51.5625 42.0642L44.8097 47.5407V66.4475C44.8097 66.4475 51.5625 62.5357 55.718 53.9299C55.718 53.9299 55.8478 53.4083 56.2374 52.626C56.627 54.973 56.3673 59.6671 53.7701 65.6652C51.952 69.9681 48.316 74.271 43.9007 76.8789C35.9793 81.3122 30.0057 81.7034 23.5127 80.3994C15.9809 78.8347 9.22815 74.6622 4.55319 67.2299C1.3067 62.0142 -0.121762 56.0161 0.0080975 49.4965C0.267817 36.7181 9.74759 25.7652 20.6558 21.5927C21.9544 21.0711 22.4738 20.8103 24.4217 20.5495C23.5127 21.2015 22.6037 21.8534 21.3051 22.7662C17.7989 25.1132 14.8121 29.677 13.5135 33.1975L34.6807 23.6789V53.4083L17.5392 62.0142C19.4871 64.7524 25.4606 68.7946 30.3953 69.4465C38.966 70.3593 44.0306 66.5779 44.0306 66.5779V47.2799L37.4077 41.8034L44.0306 36.327V22.7662C40.3945 22.375 35.9793 21.2015 33.3821 20.5495C29.746 19.5064 17.0197 15.9858 15.0718 15.5946C13.1239 15.3338 10.6566 15.3338 9.09829 16.7682C7.66983 18.0721 6.63095 20.4191 7.28025 22.6358C7.66983 23.8093 8.44899 24.5917 9.09829 25.2436C9.09829 25.2436 8.31913 25.2436 7.02053 24.3309C4.68305 22.8966 2.86501 20.028 2.60529 16.6378C2.34557 12.074 4.29347 7.9015 8.05941 5.16327C11.3059 3.077 14.942 1.77308 19.2274 2.29465C25.4606 3.20739 33.9015 6.72797 41.3035 8.55346C44.1604 9.20542 46.4979 9.46621 48.4458 8.29268C49.3548 7.64072 51.043 5.81523 49.7444 3.46818C48.1861 0.729944 45.0695 0.729944 42.4723 0.338768C44.6799 -0.0524076 45.1993 -0.0524076 46.8875 0.0779843Z" fill="black"></path><path d="M129.218 51.7138L119.609 58.755V35.1541L129.218 51.7138ZM128.958 29.0256C128.958 29.0256 122.465 32.9374 118.05 35.5452C113.635 38.1531 107.791 41.0217 107.791 41.0217V68.404L103.896 71.5334L104.415 72.1854L108.181 69.056L120.128 79.8785L140.906 63.3187L140.386 62.6668L128.958 71.6638L119.479 62.7972V59.5374L138.438 45.5854L128.958 29.0256Z" fill="black"></path><path d="M74.6777 90.3099C77.4047 90.9619 82.2096 91.3531 88.0532 88.4844C94.4164 85.2246 97.6629 78.4443 97.6629 71.4031L97.9226 61.4933V39.7178L102.078 36.5884L101.559 35.9365L97.4032 38.9355L88.0532 28.5041L76.1061 38.8051V3.86005L61.1723 15.4649C61.8216 15.8561 63.8993 16.2473 64.0292 19.2463V68.2737L57.7959 72.9678L58.1855 73.6198L61.3021 71.2727L69.743 79.2266L83.1186 68.6649L82.5991 68.0129L79.4825 70.4903L76.1061 67.2305V39.9786L80.0019 36.5884L85.8456 43.8904C85.8456 43.8904 85.8456 61.6237 85.8456 67.4913C85.8456 73.7501 85.8456 81.5737 82.4693 85.355C79.3526 89.006 77.9242 89.2668 74.6777 90.3099Z" fill="black"></path><path d="M167.526 87.8325C162.202 87.1805 159.995 83.9207 159.995 81.4433C159.995 79.7482 161.553 76.6188 164.799 76.0972C168.046 75.706 171.422 77.1403 174.149 80.5305L186.486 66.8394L185.837 66.3178L182.46 70.0992C179.084 66.1874 174.279 63.8403 169.604 63.058V21.3326L201.68 80.009C201.68 80.009 201.939 80.6609 203.368 80.6609C204.537 80.6609 204.277 79.7482 204.277 79.7482V20.6806C206.874 20.5502 210.9 19.1159 212.848 17.16C219.081 10.7708 216.484 3.86003 215.834 3.20807C215.445 6.20708 213.107 9.33649 209.212 9.33649C204.147 9.33649 201.03 5.55512 201.03 5.55512L188.564 19.5071L189.213 20.0286L192.719 15.9865C197.005 20.0286 200.251 20.2894 203.498 20.5502V54.8433L179.603 11.4228C177.396 7.90218 174.149 4.64238 169.085 4.64238C163.111 4.64238 158.956 9.85806 158.436 14.2914C157.917 19.3767 158.436 20.5502 158.436 20.5502C158.436 20.5502 159.345 14.9433 162.852 14.9433C165.968 14.9433 167.656 17.9424 168.825 20.0286V32.5463C165.579 32.8071 157.138 33.1982 156.618 41.9345C156.618 45.1943 158.566 48.5845 160.384 49.758C162.722 51.3227 164.41 51.1923 164.41 51.1923C164.41 51.1923 161.683 49.758 162.462 46.8894C163.241 44.2815 168.565 43.8904 168.695 44.9335V62.6668C166.098 62.6668 157.917 62.9276 154.151 69.9688C151.943 74.2717 152.073 79.0962 154.411 82.4864C156.618 85.4854 160.644 89.006 167.526 87.8325Z" fill="black"></path><path d="M235.444 51.7138L225.834 58.755V35.1541L235.444 51.7138ZM235.184 29.0256C235.184 29.0256 228.691 32.9374 224.276 35.5452C219.861 38.1531 214.017 41.0217 214.017 41.0217V68.404L210.121 71.5334L210.641 72.1854L214.406 69.056L226.354 79.8785L247.131 63.3187L246.612 62.6668L235.184 71.6638L225.704 62.7972V59.5374L244.664 45.5854L235.184 29.0256Z" fill="black"></path><path d="M264.274 80.1391L254.145 71.6637L249.729 74.9235L249.34 74.2715L253.885 70.8813V47.2804C254.145 37.501 244.925 39.9784 245.444 29.5471C245.704 24.9833 249.989 21.5931 252.327 20.4196C254.664 19.2461 257.261 19.2461 257.261 19.2461C257.261 19.2461 253.106 21.8539 254.145 25.6353C255.703 31.3725 265.572 31.8941 265.702 39.7176V66.448L272.974 72.3156L274.922 70.7509V41.6735L271.026 37.7618L281.155 28.7647L290.376 36.9794L286.869 40.7608V66.5784L295.57 73.7499L297.128 72.7068V41.8039L293.232 38.1529L303.362 28.8951L312.841 36.7186L316.607 33.3284L317.127 33.9804L308.556 41.5431V66.8392L286.739 80.2695L275.571 71.4029L264.274 80.1391Z" fill="black"></path><path d="M710.082 51.7138L700.473 58.755V35.1541L710.082 51.7138ZM709.823 29.0256C709.823 29.0256 703.33 32.9374 698.915 35.5452C694.499 38.1531 688.656 41.0217 688.656 41.0217V68.404L684.76 71.5334L685.279 72.1854L689.045 69.056L700.992 79.8785L721.77 63.3187L721.25 62.6668L709.823 71.6638L700.343 62.7972V59.5374L719.432 45.7158L709.823 29.0256Z" fill="black"></path><path d="M612.427 40.5002L612.946 41.1522L616.842 37.762L622.686 44.2816V66.9698L619.829 69.5776L628.919 79.7482L638.139 70.6208L634.373 66.5786V39.3267L636.711 37.3708L643.074 44.9336V67.4914L640.606 69.9688L649.177 79.4874L658.267 70.36L654.891 66.8394V39.3267L657.358 37.3708L663.981 44.8032V67.2306L661.773 69.4473L671.123 79.7482L683.85 68.0129L683.2 67.4914L680.214 70.2296L675.539 65.0139V39.4571L680.084 35.9365L679.564 35.2846L675.019 38.8051L666.448 29.1561L654.112 38.8051L645.541 29.4169L633.724 38.8051L625.023 29.5473L612.427 40.5002Z" fill="black"></path><path d="M586.845 39.8482L587.364 40.3698L590.611 37.5011L595.805 43.6296V69.5776L592.169 72.707L592.688 73.3589L596.454 70.0991L604.765 79.7481L616.842 68.9256L616.323 68.2736L612.817 71.4031L607.752 65.6658V40.3698L612.038 36.7188L611.518 36.1972L607.492 39.5874L598.792 29.2864L586.845 39.8482Z" fill="black"></path><path d="M590.221 18.3335L599.311 9.9884L606.713 18.2031L597.623 26.5482L590.221 18.3335Z" fill="black"></path><path d="M552.952 59.1461V30.4599L544.381 34.3716C544.381 34.3716 542.173 39.3265 542.563 46.4981C542.822 52.1049 545.939 58.7549 548.406 61.6236L552.952 59.1461ZM578.144 0.0785435C580.222 0.208935 583.598 1.25207 586.066 3.46873C588.793 6.07657 589.312 9.98833 588.403 13.6393C587.624 16.7687 586.585 18.4638 583.339 20.6805C580.092 22.8971 576.067 22.7667 576.067 22.7667V36.5883L582.819 42.0648L576.067 47.5412V66.4481C576.067 66.4481 582.819 62.5363 586.975 53.9304C586.975 53.9304 587.105 53.4089 587.494 52.6265C587.884 54.9736 587.624 59.6677 585.027 65.6657C583.079 70.2294 579.443 74.5324 575.028 77.0098C567.106 81.4431 561.133 81.8343 554.77 80.5304C547.238 78.9657 540.485 74.7931 535.81 67.3608C532.564 62.1451 531.135 56.1471 531.265 49.6275C531.525 36.8491 541.004 25.8962 551.913 21.7236C553.211 21.202 553.731 20.9413 555.679 20.6805C554.77 21.3324 553.861 21.9844 552.562 22.8971C549.056 25.2442 546.069 29.8079 544.77 33.3285L565.937 23.8099V53.5393L548.926 62.1451C550.874 64.8834 556.847 68.9255 561.782 69.5775C570.353 70.4902 575.417 66.7088 575.417 66.7088V47.4108L568.794 41.9344L575.417 36.4579V22.7667C571.781 22.3756 567.366 21.202 564.769 20.5501C561.003 19.6373 548.277 15.9864 546.329 15.7256C544.381 15.4648 541.913 15.4648 540.355 16.8991C538.927 18.203 537.888 20.5501 538.537 22.7667C538.927 23.9403 539.706 24.7226 540.355 25.3746C540.355 25.3746 539.576 25.3746 538.277 24.4618C535.94 23.0275 534.122 20.1589 533.862 16.7687C533.602 12.205 535.42 8.16285 539.186 5.29422C542.433 3.20795 546.069 1.90403 550.354 2.4256C556.588 3.33834 565.028 6.85893 572.43 8.68441C575.287 9.33637 577.625 9.59716 579.573 8.42363C580.482 7.77167 582.17 5.94618 580.871 3.59913C579.313 0.860895 576.196 0.860895 573.599 0.469719C575.937 -0.0518485 576.456 -0.0518485 578.144 0.0785435Z" fill="black"></path><path d="M736.833 34.3716V47.9323L741.378 51.8441C741.378 51.8441 751.118 44.0206 754.754 36.7186C754.754 36.7186 750.338 42.7167 744.365 40.8912C739.43 39.3265 736.833 34.3716 736.833 34.3716ZM725.925 70.3598C725.925 70.3598 730.21 63.1882 737.612 64.7529C744.625 66.1872 747.092 73.75 747.092 73.75V56.5382L742.157 52.2353C736.703 57.7117 727.094 65.5353 725.925 70.3598ZM732.937 83.5293C731.509 83.9205 725.535 82.4862 724.107 76.2274C722.678 70.2294 726.964 66.0568 733.197 59.6676L725.665 52.7568V39.7176C725.665 39.7176 731.119 36.9794 735.405 34.2412C739.69 31.503 744.105 28.6343 744.105 28.6343C744.105 28.6343 747.352 32.6765 750.988 32.4157C756.702 31.8941 756.442 27.4608 756.182 26.4177C757.091 28.1128 759.688 33.3284 749.819 44.9333L758 51.5833V68.5343C758 68.5343 748.52 73.4892 739.69 80.0088C739.69 80.0088 734.755 73.75 730.34 76.749C727.483 78.5745 728.782 81.9646 732.937 83.5293Z" fill="black"></path><path d="M406.339 64.2314L416.858 73.75V44.5422L406.339 34.7628V64.2314ZM427.896 40.3697L431.532 36.9795L432.051 37.6315L428.545 40.8913V67.8824C428.545 67.8824 421.792 71.5334 416.988 74.1412C412.313 76.8795 407.248 80.0089 407.248 80.0089L394.782 69.4471L391.535 72.3157L391.016 71.6638L394.522 68.6648V39.7177C394.522 39.7177 400.366 37.1099 405.3 34.2413C409.715 31.7638 414.65 28.8952 414.65 28.8952L427.896 40.3697Z" fill="black"></path><path d="M452.31 37.6315L460.231 29.5472C460.231 29.5472 461.27 30.4599 462.309 30.9815C462.829 31.2423 465.296 32.5462 467.504 31.2423C468.672 30.5903 468.802 30.4599 470.101 29.156C470.36 35.4148 467.374 39.8482 463.608 41.6736C462.049 42.456 457.634 43.8903 452.829 38.1531V67.2305L457.764 71.6638L461.92 68.1432L462.439 68.7952L449.323 79.7481L439.454 70.6207L435.818 74.0108L435.168 73.3589L440.623 68.404V43.2383L436.467 37.6315L432.831 40.7609L432.312 40.2393L444.908 28.7648L452.31 37.6315Z" fill="black"></path><path d="M485.555 49.7579L500.099 28.504C500.099 28.504 502.047 30.851 505.423 31.6334C509.968 32.8069 513.994 28.3736 513.994 28.3736C513.215 34.1108 510.358 40.5 504.384 41.5432C499.19 42.4559 494.255 38.2834 494.255 38.2834L493.346 39.7177L513.604 70.4902L517.63 66.9696L518.15 67.6216L504.254 79.8784L485.555 49.7579Z" fill="black"></path><path d="M473.607 21.3325C473.607 16.7688 471.789 13.9001 469.322 14.1609L485.295 2.9472V66.4481L489.45 70.8814L492.697 68.1432L493.216 68.7952L480.36 80.0089L471.659 71.7942L468.153 74.9236L467.634 74.2716L473.737 68.9255V21.3325" fill="black"></path><path d="M371.407 39.1962C371.407 39.1962 369.589 41.1521 366.862 41.1521C364.135 41.1521 362.317 39.1962 362.317 39.1962V47.9325C362.317 47.9325 364.135 45.9766 366.862 45.9766C369.589 45.9766 371.407 47.9325 371.407 47.9325V39.1962ZM371.407 20.5502L365.303 15.0737L362.317 17.4207V37.7619C362.317 37.7619 364.135 40.1089 366.862 40.1089C369.589 40.1089 371.407 37.8923 371.407 37.8923V20.5502ZM362.317 78.3138C362.317 78.3138 366.083 79.3569 368.68 77.1403C371.667 74.6628 371.407 71.1422 371.407 71.1422V49.106C371.407 49.106 369.719 46.8893 366.862 46.8893C364.135 46.8893 362.317 49.2364 362.317 49.2364V78.3138ZM340.5 20.2894C340.5 15.9864 338.812 13.6394 335.955 13.509C331.929 13.3786 330.891 19.1158 330.891 19.1158C330.891 19.1158 330.111 14.6825 333.877 10.6404C335.955 8.42369 339.851 5.29429 345.824 6.7286C352.058 8.2933 353.876 13.1178 353.876 17.4207V76.4883C353.876 76.4883 356.213 76.7491 357.901 77.1403C359.719 77.5315 361.537 78.053 361.537 78.053V6.85899H362.317V16.508L375.043 6.20703L384.393 14.5521L388.808 10.7708L389.327 11.4227L384.782 15.3345V70.2295C384.523 73.7501 384.003 77.4011 380.627 79.6177C373.095 84.051 364.005 78.9658 355.954 77.7922C349.98 76.8795 340.5 75.706 338.163 81.3128C337.384 83.1383 337.384 85.8765 340.111 87.702C345.565 91.353 369.849 81.5736 378.16 85.4854C385.821 89.0059 385.691 94.6128 384.523 98.5246C382.575 105.827 373.485 107 373.485 107C373.485 107 377.9 104.392 376.731 100.089C376.082 97.8726 374.653 97.351 369.848 97.8726C359.46 99.0461 346.993 104.131 338.552 100.611C334.267 98.7853 331.15 93.4393 331.54 88.0932C331.8 80.4001 340.5 77.4011 340.5 77.4011V49.106C340.24 47.9325 335.566 48.3236 334.527 50.4099C332.968 53.5393 336.475 54.9736 336.475 54.9736C336.475 54.9736 333.618 55.3648 331.15 52.6266C329.982 51.1923 327.514 46.3678 330.761 41.9344C333.358 38.2835 336.604 37.6315 340.63 37.2403V20.2894H340.5Z" fill="black"></path></g><defs><clipPath id="clip0_1_24"><rect width="758" height="107" fill="white"></rect></clipPath></defs></svg>