<svg xmlns="http://www.w3.org/2000/svg" width="515" height="105" viewBox="0 0 515 105" fill="none"><g clip-path="url(#clip0_0_3)"><path d="M0 0H103.064C103.064 34.9957 103.064 70.0043 103.064 105H0V0ZM7.59015 16.4799C12.1879 37.8256 16.3105 59.2866 20.7413 80.6707C21.5504 83.2317 21.0495 86.6122 23.541 88.3281C28.036 89.0451 32.6466 88.8659 37.1802 88.5585C39.646 88.6354 40.2368 85.7415 40.6863 83.8848C43.7814 68.6598 47.1463 53.486 50.2286 38.261C50.4726 36.8524 50.9092 35.4823 51.5771 34.2146C55.4171 50.5537 58.5893 67.0335 62.1596 83.4238C62.6476 85.1652 62.7504 87.3165 64.4713 88.3793C69.3773 88.9683 74.4117 89.0195 79.3049 88.3408C81.0643 87.3037 81.1542 85.1652 81.6037 83.3982C86.1373 61.1049 90.3626 38.722 95.153 16.4799C90.8249 16.5055 86.5097 16.4927 82.1945 16.4927C78.7526 35.8921 75.9914 55.4195 72.1899 74.7549C67.9132 58.3518 65.0493 41.5518 61.3248 24.9951C60.4772 22.1652 60.8625 18.0421 57.7545 16.6079C53.953 16.3774 50.1258 16.3646 46.3243 16.6079C44.1667 16.7872 43.6787 19.3354 43.2549 21.0256C39.813 37.4415 36.2041 53.8189 32.8393 70.2348C32.4925 71.7585 31.9788 73.2183 31.4009 74.6652C27.9461 55.3171 24.6712 35.9177 21.6916 16.4927C16.9911 16.4799 12.2906 16.5055 7.59015 16.4799Z" fill="black"></path><path d="M205.166 0H308.23C308.23 34.9957 308.23 70.0043 308.23 105H205.166C205.166 70.0043 205.166 34.9957 205.166 0ZM228.45 16.4927C228.45 40.5018 228.45 64.4982 228.45 88.5073C233.202 88.5073 237.966 88.5073 242.731 88.5073C242.731 79.1213 242.731 69.7226 242.731 60.3366C250.475 60.3622 258.22 60.2982 265.964 60.3494C268.789 60.0805 272.154 62.0909 272.09 65.1896C272.449 72.975 273.117 80.7348 273.605 88.5073C278.139 88.5073 282.66 88.5073 287.193 88.5201C285.909 79.7104 287.488 70.6061 284.997 61.9756C283.713 57.4555 278.704 56.4439 274.8 55.3171C277.702 53.7805 281.427 53.6396 283.533 50.8226C286.589 46.9555 286.808 41.7951 286.821 37.0829C286.769 31.5768 286.898 25.5201 283.392 20.8976C280.592 17.0561 275.352 16.4927 270.96 16.4927C256.794 16.4799 242.615 16.4927 228.45 16.4927Z" fill="black"></path><path d="M410.651 0H515V105H410.651C410.651 70.0043 410.651 34.9957 410.651 0ZM433.936 16.4927C433.936 40.5018 433.936 64.4982 433.936 88.5073C445.944 88.4817 457.939 88.5585 469.947 88.4689C477.345 88.328 485.962 86.9579 490.419 80.3506C495.62 72.053 494.837 61.8988 495.748 52.5384C494.824 43.1652 495.646 32.9726 490.419 24.6494C486.27 18.4646 478.333 16.8384 471.36 16.5823C458.889 16.3774 446.406 16.5439 433.936 16.4927Z" fill="black"></path><path d="M129.212 15.7884C145.818 15.75 162.411 15.75 179.004 15.7884C179.068 20.078 179.068 24.3805 179.017 28.6829C173.148 28.7213 167.279 28.6957 161.409 28.6957C161.435 44.561 161.435 60.439 161.409 76.3042C167.279 76.3042 173.148 76.2786 179.03 76.3299C179.056 80.6195 179.068 84.9219 179.004 89.2116C162.411 89.25 145.818 89.25 129.225 89.2116C129.161 84.9091 129.161 80.6195 129.212 76.3171C135.082 76.2786 140.951 76.3042 146.82 76.3042C146.794 60.439 146.794 44.561 146.82 28.6957C140.951 28.6957 135.082 28.7213 129.212 28.6829C129.161 24.3805 129.161 20.0908 129.212 15.7884Z" fill="black"></path><path d="M326.646 15.8013C346.989 15.7372 367.332 15.7372 387.688 15.8013C387.714 23.7659 387.688 31.7305 387.701 39.6952C383.296 39.6952 378.891 39.6952 374.486 39.6952C374.473 36.0202 374.473 32.358 374.499 28.6958C366.536 28.7086 358.586 28.7086 350.624 28.6958C350.598 34.2019 350.611 39.708 350.611 45.2141C357.032 45.2141 363.454 45.2141 369.875 45.2141C369.875 49.2988 369.875 53.3836 369.875 57.4683C363.454 57.4683 357.032 57.4683 350.611 57.4683C350.637 63.7555 350.547 70.0555 350.675 76.3427C358.843 76.2531 367.011 76.3171 375.179 76.3043C375.166 72.1171 375.166 67.9299 375.179 63.7427C379.661 63.6915 384.144 63.6915 388.626 63.7299C388.626 72.2195 388.69 80.7092 388.587 89.1988C367.936 89.2628 347.297 89.2628 326.646 89.1988C326.582 84.9092 326.595 80.6195 326.633 76.3299C329.908 76.2915 333.17 76.2915 336.445 76.3171C336.509 60.4391 336.509 44.561 336.445 28.683C333.17 28.7086 329.895 28.7086 326.62 28.6445C326.595 24.3677 326.595 20.0781 326.646 15.8013Z" fill="black"></path><path d="M242.73 28.3244C251.9 28.4653 261.083 28.0427 270.227 28.5165C273.759 31.0134 273.053 36.0329 273.194 39.8104C273.014 43.2421 272.95 48.7354 268.365 49.0043C259.837 49.4397 251.271 49.0683 242.73 49.1836C242.73 42.2305 242.73 35.2775 242.73 28.3244Z" fill="black"></path><path d="M448.217 28.3244C455.962 28.3628 463.706 28.2732 471.45 28.35C474.905 28.3116 478.848 29.989 479.939 33.5232C482.367 40.4378 481.339 47.9415 481.609 55.1378C481.403 60.8872 482.007 66.9567 479.554 72.3476C477.91 75.8305 473.659 76.7525 470.153 76.6884C462.832 76.6884 455.525 76.6628 448.217 76.6756C448.217 60.5543 448.217 44.4458 448.217 28.3244Z" fill="black"></path></g><defs><clipPath id="clip0_0_3"><rect width="515" height="105" fill="white"></rect></clipPath></defs></svg>