<svg xmlns="http://www.w3.org/2000/svg" width="419" height="97" viewBox="0 0 419 97" fill="none"><g clip-path="url(#clip0_1_16)"><path d="M76.892 0.000199006C68.873 0.0335146 60.8959 4.24359 56.9145 12.628L55.0752 16.4981V48.4764V80.4548L56.9145 84.3249C59.769 90.3361 64.1874 94.1309 70.8095 96.2259C75.5554 97.7273 83.1206 96.9361 87.9461 94.4453C91.0763 92.8296 95.5058 88.0192 97.2156 84.3794L98.7817 81.0362V48.4764V15.9167L97.0699 12.4645C92.9603 4.11368 84.911 -0.033105 76.892 0.000199006ZM77.2563 15.844C77.5463 15.8458 77.8363 15.8744 78.1122 15.9349C79.0369 16.1375 80.5791 17.2072 81.5541 18.3151L83.3387 20.3319V48.3311V76.3303L82.0276 78.2381C81.3064 79.2923 79.952 80.4208 79.0227 80.7455C78.0935 81.0701 77.0445 81.3315 76.6917 81.3269C75.2873 81.3081 73.1075 79.7582 71.8476 77.8929L70.5182 75.9306V48.5491C70.5203 22.4125 70.5616 21.0727 71.6473 19.2962C72.9313 17.1952 75.2262 15.8304 77.2563 15.844Z" fill="black"></path><path d="M260.621 95.9219C253.866 93.4222 249.429 89.116 246.872 82.579C245.972 80.2786 245.881 76.3937 245.897 40.7165L245.914 1.38964L253.785 1.22787L261.656 1.0661L261.665 38.7297C261.672 67.8352 261.84 76.7236 262.407 77.8469C262.811 78.6464 264.068 79.7992 265.202 80.4087C267.748 81.7783 269.883 81.3574 272.221 79.0247L273.894 77.3549V39.2105V1.0661L281.771 1.22787L289.648 1.38964L289.646 40.7385C289.644 79.1902 289.617 80.1611 288.43 83.3258C286.715 87.8974 282.342 92.4867 277.481 94.8147C272.413 97.242 265.428 97.7007 260.621 95.9219Z" fill="black"></path><path d="M0 48.4849V1.09882H19.5222H39.0445V9.23875V17.3787H27.6808H16.3171V28.4557V39.5328L23.4558 39.4338L30.5946 39.3349L30.7567 47.2531L30.9188 55.1712H23.618H16.3171V75.5211V95.8709H8.15855H0V48.4849Z" fill="black"></path><path d="M120.63 48.4849V1.09882H132.745C145.938 1.09882 149.549 1.64394 154.141 4.32873C157.604 6.35399 161.224 10.4258 163.066 14.368C164.556 17.5572 164.615 18.0884 164.805 29.9956C164.963 39.9048 164.818 43.0373 164.065 45.9705C162.977 50.2052 160.995 53.8145 158.258 56.5461L156.322 58.4777L161.43 75.9308C164.239 85.5301 166.716 93.9435 166.933 94.6275C167.325 95.8586 167.245 95.8709 158.919 95.8709H150.51L148.062 86.4228C145.623 77.0075 139.396 53.4192 138.868 51.5951C138.667 50.9039 139.074 50.5292 140.322 50.2557C142.634 49.7491 146.811 46.1126 147.804 43.7421C148.38 42.3663 148.602 38.9061 148.602 31.3068V20.7778L146.899 19.0782C145.316 17.4989 144.883 17.3787 140.78 17.3787H136.364V56.6248V95.8709H128.497H120.63V48.4849Z" fill="black"></path><path d="M196.965 95.4349C196.961 95.195 196.896 77.5997 196.819 56.3341L196.679 17.6694L189.541 17.5061L182.402 17.3429V9.22085V1.09882H204.546H226.691V9.23875V17.3787H219.698H212.705V56.6248V95.8709H204.838C200.511 95.8709 196.968 95.6747 196.965 95.4349Z" fill="black"></path><path d="M310.608 48.485V1.09893H318.646H326.684L327.305 3.27927C327.646 4.47845 330.3 12.9164 333.203 22.0302C336.105 31.144 339.309 41.2826 340.323 44.5604C341.337 47.8381 342.414 50.52 342.717 50.52C343.053 50.52 343.251 40.9765 343.229 25.9548L343.191 1.38964L351.084 1.22787L358.976 1.0661V48.4686V95.8711H350.065H341.153L339.484 90.4929C338.567 87.5349 336.95 82.4048 335.892 79.0927C334.834 75.7806 332.47 68.2584 330.639 62.3768C328.808 56.4951 327.092 51.6828 326.826 51.6828C326.56 51.6828 326.342 61.6252 326.342 73.7769V95.8711H318.475H310.608V48.485Z" fill="black"></path><path d="M379.956 48.4849V1.09882H399.478H419V9.23875V17.3787H407.332H395.664L395.823 28.2804L395.981 39.1821H403.412H410.843L410.842 47.1767V55.1712H403.266H395.69V67.3812V79.5911H407.345H419V87.731V95.8709H399.478H379.956V48.4849Z" fill="black"></path></g><defs><clipPath id="clip0_1_16"><rect width="419" height="97" fill="white"></rect></clipPath></defs></svg>