<svg xmlns="http://www.w3.org/2000/svg" width="602" height="86" viewBox="0 0 602 86" fill="none"><g clip-path="url(#clip0_1_2)"><path d="M112.492 28.6667H168.788V0H112.492V28.6667Z" fill="black"></path><path d="M0 0V28.6667H28.0979V86H56.1959V28.6667H84.3941V0H0Z" fill="black"></path><path d="M84.394 86H168.788V57.3333H112.492V28.6666H84.394V86Z" fill="black"></path><path d="M240.538 21.6504H199.194V33.5781H213.043V70.9651H226.69V33.5781H240.538V21.6504Z" fill="black"></path><path d="M256.092 33.1772C246.359 33.1772 239.133 39.6923 239.133 52.5222C239.133 63.8485 245.255 71.7669 256.393 71.7669C262.214 71.7669 266.93 70.2634 271.446 67.5571L266.629 59.4383C262.916 61.3427 260.307 62.0443 256.996 62.0443C253.584 62.0443 251.175 60.2401 250.674 56.1306H272.449C272.55 55.5292 272.55 54.7273 272.55 53.6247C272.65 39.8928 266.328 33.1772 256.092 33.1772ZM250.874 48.2121C251.276 44.5035 252.881 42.5991 255.791 42.5991C259.504 42.5991 260.809 44.5035 261.411 48.2121H250.874Z" fill="black"></path><path d="M296.734 61.4429C293.322 61.4429 291.516 58.4359 291.516 52.5222C291.516 46.7086 293.121 43.401 296.433 43.401C299.142 43.401 300.347 44.9045 302.153 48.2121L310.883 41.5968C307.672 36.3846 303.658 33.1772 296.634 33.1772C284.792 33.1772 278.972 40.9954 278.972 52.3217C278.972 64.7506 285.495 71.6667 296.333 71.6667C302.855 71.6667 306.869 69.1609 311.184 62.8462L303.156 56.5315C300.748 60.1399 299.142 61.4429 296.734 61.4429Z" fill="black"></path><path d="M340.487 33.1772C336.071 33.1772 333.462 34.6807 331.154 36.3847V19.6458L318.41 24.7576V71.0653H331.154V49.9162C331.154 45.3054 332.76 44.0024 335.469 44.0024C338.078 44.0024 339.684 45.3054 339.684 50.0164V71.0653H352.428V48.4127C352.428 38.69 348.515 33.1772 340.487 33.1772Z" fill="black"></path><path d="M383.035 59.8391C377.114 59.8391 374.706 53.8251 374.706 46.3076C374.706 38.4895 377.215 32.7762 382.935 32.7762C387.45 32.7762 389.156 35.6829 390.862 40.2937L403.306 35.3822C399.894 26.0606 395.077 20.8484 382.935 20.8484C369.688 20.8484 360.356 30.4708 360.356 46.3076C360.356 60.9417 368.183 71.7668 382.834 71.7668C394.575 71.7668 400.094 65.4521 403.406 59.0372L391.866 52.923C389.156 57.5338 387.35 59.8391 383.035 59.8391Z" fill="black"></path><path d="M423.877 36.6853V33.979H411.133V70.9651H423.877V50.8182C423.877 46.3077 425.784 44.8042 428.895 44.8042C431.403 44.8042 433.21 46.1073 434.815 47.9115L437.826 34.7809C436.321 33.8788 434.514 33.1772 431.805 33.1772C428.493 33.1772 425.985 34.5804 423.877 36.6853Z" fill="black"></path><path d="M465.021 55.1282C465.021 59.7389 463.415 61.0419 460.806 61.0419C458.197 61.0419 456.592 59.7389 456.592 55.028V33.979H443.847V56.6317C443.847 66.3543 447.761 71.7669 455.889 71.7669C460.204 71.7669 462.914 70.2634 465.121 68.5594V71.0652H477.866V34.0792H465.121V55.1282" fill="black"></path><path d="M509.075 33.1772C504.659 33.1772 502.05 34.6807 499.742 36.3847V33.8788H486.998V70.8648H499.742V49.7156C499.742 45.1049 501.348 43.8019 504.057 43.8019C506.666 43.8019 508.272 45.1049 508.272 49.8159V70.8648H521.016V48.2121C521.016 38.69 517.203 33.1772 509.075 33.1772Z" fill="black"></path><path d="M546.304 61.4429C542.892 61.4429 541.086 58.4359 541.086 52.5222C541.086 46.7086 542.692 43.401 545.903 43.401C548.612 43.401 549.816 44.9045 551.623 48.2121L560.353 41.5968C557.142 36.3846 553.128 33.1772 546.103 33.1772C534.262 33.1772 528.442 40.9954 528.442 52.3217C528.442 64.7506 534.965 71.6667 545.802 71.6667C552.325 71.6667 556.339 69.1609 560.654 62.8462L552.626 56.5315C550.419 60.1399 548.713 61.4429 546.304 61.4429Z" fill="black"></path><path d="M590.056 33.1772C585.641 33.1772 583.032 34.6807 580.724 36.3847V19.6458L567.979 24.7576V71.0653H580.724V49.9162C580.724 45.3054 582.33 44.0024 585.039 44.0024C587.648 44.0024 589.254 45.3054 589.254 50.0164V71.0653H601.998V48.4127C602.098 38.69 598.185 33.1772 590.056 33.1772Z" fill="black"></path></g><defs><clipPath id="clip0_1_2"><rect width="602" height="86" fill="white"></rect></clipPath></defs></svg>