<svg xmlns="http://www.w3.org/2000/svg" width="157" height="190" viewBox="0 0 157 190" fill="none"><path d="M93.9251 6.02051L32.5042 81.5658L78.9964 88.8216L45.5135 124.674L68.7596 129.582L31.2246 184L109.067 126.594L93.9251 123.18L136.365 84.3401L93.9251 71.7492L153 6.02051H93.9251Z" stroke="#D6D5E2" stroke-width="2" stroke-miterlimit="16"></path><circle cx="76.5" cy="92.9287" r="75.5" stroke="#D6D5E2" stroke-width="2"></circle><path d="M36.4734 80.8436C36.4734 77.8737 34.0681 75.4661 31.101 75.4661C28.1338 75.4661 25.7285 77.8737 25.7285 80.8436C25.7285 83.8136 28.1338 86.2212 31.101 86.2212C34.0681 86.2212 36.4734 83.8136 36.4734 80.8436Z" fill="#553AFF" stroke="white" stroke-width="3.72288"></path><path d="M38.265 80.8436C38.265 76.8837 35.0579 73.6735 31.1017 73.6735C27.1456 73.6735 23.9385 76.8837 23.9385 80.8436C23.9385 84.8035 27.1456 88.0137 31.1017 88.0137C35.0579 88.0137 38.265 84.8035 38.265 80.8436Z" stroke="white" stroke-width="2.48192"></path><path d="M88.5154 17.3544C88.5154 14.3844 86.1101 11.9768 83.143 11.9768C80.1758 11.9768 77.7705 14.3844 77.7705 17.3544C77.7705 20.3243 80.1758 22.7319 83.143 22.7319C86.1101 22.7319 88.5154 20.3243 88.5154 17.3544Z" fill="#553AFF" stroke="white" stroke-width="3.72288"></path><path d="M90.307 17.3539C90.307 13.3939 87.0999 10.1838 83.1437 10.1838C79.1876 10.1838 75.9805 13.3939 75.9805 17.3539C75.9805 21.3138 79.1876 24.5239 83.1437 24.5239C87.0999 24.5239 90.307 21.3138 90.307 17.3539Z" stroke="white" stroke-width="2.48192"></path><path d="M141.596 83.9657C141.596 80.9958 139.191 78.5882 136.224 78.5882C133.257 78.5882 130.852 80.9958 130.852 83.9657C130.852 86.9357 133.257 89.3433 136.224 89.3433C139.191 89.3433 141.596 86.9357 141.596 83.9657Z" fill="#553AFF" stroke="white" stroke-width="3.72288"></path><path d="M143.387 83.9662C143.387 80.0062 140.18 76.7961 136.224 76.7961C132.268 76.7961 129.061 80.0062 129.061 83.9662C129.061 87.9261 132.268 91.1362 136.224 91.1362C140.18 91.1362 143.387 87.9261 143.387 83.9662Z" stroke="white" stroke-width="2.48192"></path></svg>