<svg xmlns="http://www.w3.org/2000/svg" width="167" height="171" viewBox="0 0 167 171" fill="none"><path fill-rule="evenodd" clip-rule="evenodd" d="M40.0381 86.7349C40.0381 110.835 59.5707 130.36 83.6631 130.36C107.759 130.36 127.288 110.835 127.288 86.7349C127.288 62.6463 107.759 43.1099 83.6631 43.1099C59.5707 43.1099 40.0381 62.6463 40.0381 86.7349Z" stroke="#D6D5E2" stroke-width="2" stroke-linecap="round" stroke-linejoin="round"></path><path fill-rule="evenodd" clip-rule="evenodd" d="M48.1553 86.7353C48.1553 106.352 64.0539 122.244 83.664 122.244C103.277 122.244 119.173 106.352 119.173 86.7353C119.173 67.1283 103.277 51.2266 83.664 51.2266C64.0539 51.2266 48.1553 67.1283 48.1553 86.7353Z" stroke="#D6D5E2" stroke-width="2" stroke-linecap="round" stroke-linejoin="round"></path><path d="M64.3877 47.0279V32.6032L77.9239 23.6431V12.5337" stroke="#D6D5E2" stroke-width="2" stroke-linecap="round" stroke-linejoin="round"></path><path d="M78.2394 43.1103V33.175L58.3008 20.7905" stroke="#D6D5E2" stroke-width="2" stroke-linecap="round" stroke-linejoin="round"></path><path d="M115.443 55.9527V43.11L123.257 37.0124V27.2148" stroke="#D6D5E2" stroke-width="2" stroke-linecap="round" stroke-linejoin="round"></path><path d="M40.6814 77.6045H24.5977" stroke="#D6D5E2" stroke-width="2" stroke-linecap="round" stroke-linejoin="round"></path><path d="M40.0395 90.5054H24.5989L16.7477 97.6703H1.84082" stroke="#D6D5E2" stroke-width="2" stroke-linecap="round" stroke-linejoin="round"></path><path d="M61.7402 124.642V134.5L74.7475 147.508V164.855" stroke="#D6D5E2" stroke-width="2" stroke-linecap="round" stroke-linejoin="round"></path><path d="M96.8534 129.097V142.806L86.708 152.951V169.818" stroke="#D6D5E2" stroke-width="2" stroke-linecap="round" stroke-linejoin="round"></path><path d="M124.716 102.431H140.735L152.661 90.5054H165.591" stroke="#D6D5E2" stroke-width="2" stroke-linecap="round" stroke-linejoin="round"></path><path d="M86.708 130.36V140.839L96.8534 150.984V158.959H107.403" stroke="#D6D5E2" stroke-width="2" stroke-linecap="round" stroke-linejoin="round"></path><path d="M55.0608 119.792V141.791L46.1709 150.681" stroke="#D6D5E2" stroke-width="2" stroke-linecap="round" stroke-linejoin="round"></path><path d="M116.141 116.05H130.442L139.033 124.642H148.118" stroke="#D6D5E2" stroke-width="2" stroke-linecap="round" stroke-linejoin="round"></path><path d="M123.999 69.685L132.129 61.555H141.78L150.18 53.1553" stroke="#D6D5E2" stroke-width="2" stroke-linecap="round" stroke-linejoin="round"></path><path d="M50.615 57.2484L40.6813 47.3148H26.2127L18.1504 39.2524" stroke="#D6D5E2" stroke-width="2" stroke-linecap="round" stroke-linejoin="round"></path><path d="M48.1551 112.015L40.8826 119.287H30.0163L22.083 127.22" stroke="#D6D5E2" stroke-width="2" stroke-linecap="round" stroke-linejoin="round"></path><path d="M95.0801 44.5949L102.941 36.7341V27.2148" stroke="#D6D5E2" stroke-width="2" stroke-linecap="round" stroke-linejoin="round"></path><path d="M82.0251 6.81656C82.0251 4.52957 80.1711 2.6756 77.8841 2.6756C75.5971 2.6756 73.7432 4.52957 73.7432 6.81656C73.7432 9.10355 75.5971 10.9575 77.8841 10.9575C80.1711 10.9575 82.0251 9.10355 82.0251 6.81656Z" fill="#553AFF" stroke="white" stroke-width="2.76064"></path><path d="M83.4049 6.81661C83.4049 3.7673 80.9329 1.29534 77.8836 1.29534C74.8343 1.29534 72.3623 3.7673 72.3623 6.81661C72.3623 9.86593 74.8343 12.3379 77.8836 12.3379C80.9329 12.3379 83.4049 9.86593 83.4049 6.81661Z" stroke="white" stroke-width="1.84043"></path><path d="M23.1315 77.798C23.1315 75.511 21.2776 73.657 18.9906 73.657C16.7036 73.657 14.8496 75.511 14.8496 77.798C14.8496 80.085 16.7036 81.939 18.9906 81.939C21.2776 81.939 23.1315 80.085 23.1315 77.798Z" fill="#553AFF" stroke="white" stroke-width="2.76064"></path><path d="M24.5113 77.7976C24.5113 74.7483 22.0393 72.2763 18.99 72.2763C15.9407 72.2763 13.4688 74.7483 13.4688 77.7976C13.4688 80.8469 15.9407 83.3188 18.99 83.3188C22.0393 83.3188 24.5113 80.8469 24.5113 77.7976Z" stroke="white" stroke-width="1.84043"></path><path d="M116.897 158.486C116.897 156.199 115.043 154.345 112.756 154.345C110.469 154.345 108.615 156.199 108.615 158.486C108.615 160.772 110.469 162.626 112.756 162.626C115.043 162.626 116.897 160.772 116.897 158.486Z" fill="#553AFF" stroke="white" stroke-width="2.76064"></path><path d="M118.278 158.486C118.278 155.436 115.806 152.964 112.757 152.964C109.707 152.964 107.235 155.436 107.235 158.486C107.235 161.535 109.707 164.007 112.757 164.007C115.806 164.007 118.278 161.535 118.278 158.486Z" stroke="white" stroke-width="1.84043"></path><path d="M85.1198 82.6593C85.1198 80.3723 83.2658 78.5184 80.9788 78.5184C78.6919 78.5184 76.8379 80.3723 76.8379 82.6593C76.8379 84.9463 78.6919 86.8003 80.9788 86.8003C83.2658 86.8003 85.1198 84.9463 85.1198 82.6593Z" fill="#553AFF" stroke="white" stroke-width="2.76064"></path><path d="M86.5006 82.6594C86.5006 79.6101 84.0286 77.1381 80.9793 77.1381C77.93 77.1381 75.458 79.6101 75.458 82.6594C75.458 85.7087 77.93 88.1807 80.9793 88.1807C84.0286 88.1807 86.5006 85.7087 86.5006 82.6594Z" stroke="white" stroke-width="1.84043"></path><path d="M127.45 21.9254C127.45 19.6385 125.596 17.7845 123.309 17.7845C121.022 17.7845 119.168 19.6385 119.168 21.9254C119.168 24.2124 121.022 26.0664 123.309 26.0664C125.596 26.0664 127.45 24.2124 127.45 21.9254Z" fill="#553AFF" stroke="white" stroke-width="2.76064"></path><path d="M128.83 21.9255C128.83 18.8762 126.358 16.4042 123.308 16.4042C120.259 16.4042 117.787 18.8762 117.787 21.9255C117.787 24.9748 120.259 27.4468 123.308 27.4468C126.358 27.4468 128.83 24.9748 128.83 21.9255Z" stroke="white" stroke-width="1.84043"></path><path d="M157.255 124.456C157.255 122.169 155.401 120.315 153.114 120.315C150.827 120.315 148.973 122.169 148.973 124.456C148.973 126.743 150.827 128.597 153.114 128.597C155.401 128.597 157.255 126.743 157.255 124.456Z" fill="#553AFF" stroke="white" stroke-width="2.76064"></path><path d="M158.635 124.456C158.635 121.407 156.163 118.935 153.114 118.935C150.065 118.935 147.593 121.407 147.593 124.456C147.593 127.506 150.065 129.978 153.114 129.978C156.163 129.978 158.635 127.506 158.635 124.456Z" stroke="white" stroke-width="1.84043"></path><path fill-rule="evenodd" clip-rule="evenodd" d="M72.4287 75.729H94.5138V97.8141H72.4287V75.729Z" stroke="#D6D5E2" stroke-width="2" stroke-linecap="round" stroke-linejoin="round"></path><path fill-rule="evenodd" clip-rule="evenodd" d="M70.22 70.208H96.7221C98.5517 70.208 100.035 71.6912 100.035 73.5208V100.023C100.035 101.852 98.5517 103.336 96.7221 103.336H70.22C68.3904 103.336 66.9072 101.852 66.9072 100.023V73.5208C66.9072 71.6912 68.3904 70.208 70.22 70.208Z" stroke="#D6D5E2" stroke-width="2" stroke-linecap="round" stroke-linejoin="round"></path><path d="M76.0625 70.2079V66.0957" stroke="#D6D5E2" stroke-width="2" stroke-linecap="round" stroke-linejoin="round"></path><path d="M83.5166 70.2079V66.0957" stroke="#D6D5E2" stroke-width="2" stroke-linecap="round" stroke-linejoin="round"></path><path d="M90.9717 70.2079V66.0957" stroke="#D6D5E2" stroke-width="2" stroke-linecap="round" stroke-linejoin="round"></path><path d="M100.305 78.9453H104.417" stroke="#D6D5E2" stroke-width="2" stroke-linecap="round" stroke-linejoin="round"></path><path d="M100.305 86.3999H104.417" stroke="#D6D5E2" stroke-width="2" stroke-linecap="round" stroke-linejoin="round"></path><path d="M100.305 93.853H104.417" stroke="#D6D5E2" stroke-width="2" stroke-linecap="round" stroke-linejoin="round"></path><path d="M62.5742 78.9473H66.6864" stroke="#D6D5E2" stroke-width="2" stroke-linecap="round" stroke-linejoin="round"></path><path d="M62.5742 86.4014H66.6864" stroke="#D6D5E2" stroke-width="2" stroke-linecap="round" stroke-linejoin="round"></path><path d="M62.5742 93.855H66.6864" stroke="#D6D5E2" stroke-width="2" stroke-linecap="round" stroke-linejoin="round"></path><path d="M76.0166 107.493V103.38" stroke="#D6D5E2" stroke-width="2" stroke-linecap="round" stroke-linejoin="round"></path><path d="M83.4697 107.493V103.38" stroke="#D6D5E2" stroke-width="2" stroke-linecap="round" stroke-linejoin="round"></path><path d="M90.9229 107.493V103.38" stroke="#D6D5E2" stroke-width="2" stroke-linecap="round" stroke-linejoin="round"></path></svg>