<svg xmlns="http://www.w3.org/2000/svg" width="160" height="178" viewBox="0 0 160 178" fill="none"><g clip-path="url(#clip0_106_530)"><path d="M81.7378 93.9126C85.5798 93.9126 88.6943 90.798 88.6943 86.956C88.6943 83.1141 85.5798 79.9995 81.7378 79.9995C77.8958 79.9995 74.7812 83.1141 74.7812 86.956C74.7812 90.798 77.8958 93.9126 81.7378 93.9126Z" stroke="#D6D5E2" stroke-width="2" stroke-linecap="round" stroke-linejoin="round"></path><path d="M80.8685 170.434C96.7167 170.434 109.564 132.671 109.564 86.0866C109.564 39.5026 96.7167 1.73877 80.8685 1.73877C65.0203 1.73877 52.1729 39.5026 52.1729 86.0866C52.1729 132.671 65.0203 170.434 80.8685 170.434Z" stroke="#D6D5E2" stroke-width="2" stroke-linecap="round" stroke-linejoin="round"></path><path d="M153.484 43.9807C145.56 30.2558 106.432 38.0114 66.089 61.3034C25.7461 84.5955 -0.534609 114.604 7.38948 128.329C15.3136 142.053 54.4417 134.298 94.7847 111.006C135.128 87.7138 161.408 57.7056 153.484 43.9807Z" stroke="#D6D5E2" stroke-width="2" stroke-linecap="round" stroke-linejoin="round"></path><path fill-rule="evenodd" clip-rule="evenodd" d="M153.484 128.329C161.408 114.604 135.128 84.5958 94.7847 61.3038C54.4417 38.0118 15.3136 30.2561 7.38948 43.981C-0.534606 57.706 25.7461 87.7141 66.089 111.006C106.432 134.298 145.56 142.054 153.484 128.329Z" stroke="#D6D5E2" stroke-width="2" stroke-linecap="round" stroke-linejoin="round"></path><path d="M86.9553 86.9564C86.9553 84.075 84.6194 81.739 81.7379 81.739C78.8564 81.739 76.5205 84.075 76.5205 86.9564C76.5205 89.8379 78.8564 92.1738 81.7379 92.1738C84.6194 92.1738 86.9553 89.8379 86.9553 86.9564Z" fill="#553AFF"></path><path d="M85.6513 86.9566C85.6513 84.7955 83.8994 83.0435 81.7382 83.0435C79.5771 83.0435 77.8252 84.7955 77.8252 86.9566C77.8252 89.1177 79.5771 90.8696 81.7382 90.8696C83.8994 90.8696 85.6513 89.1177 85.6513 86.9566Z" stroke="white" stroke-width="2"></path><path d="M86.9553 86.9564C86.9553 84.075 84.6194 81.739 81.7379 81.739C78.8564 81.739 76.5205 84.075 76.5205 86.9564C76.5205 89.8379 78.8564 92.1738 81.7379 92.1738C84.6194 92.1738 86.9553 89.8379 86.9553 86.9564Z" stroke="white" stroke-width="2"></path><path d="M86.9553 53.913C86.9553 51.0315 84.6194 48.6956 81.7379 48.6956C78.8564 48.6956 76.5205 51.0315 76.5205 53.913C76.5205 56.7945 78.8564 59.1304 81.7379 59.1304C84.6194 59.1304 86.9553 56.7945 86.9553 53.913Z" fill="#553AFF"></path><path d="M85.6513 53.9131C85.6513 51.752 83.8994 50.0001 81.7382 50.0001C79.5771 50.0001 77.8252 51.752 77.8252 53.9131C77.8252 56.0742 79.5771 57.8262 81.7382 57.8262C83.8994 57.8262 85.6513 56.0742 85.6513 53.9131Z" stroke="white" stroke-width="2"></path><path d="M86.9553 53.913C86.9553 51.0315 84.6194 48.6956 81.7379 48.6956C78.8564 48.6956 76.5205 51.0315 76.5205 53.913C76.5205 56.7945 78.8564 59.1304 81.7379 59.1304C84.6194 59.1304 86.9553 56.7945 86.9553 53.913Z" stroke="white" stroke-width="2"></path><path d="M86.9553 170.434C86.9553 167.553 84.6194 165.217 81.7379 165.217C78.8564 165.217 76.5205 167.553 76.5205 170.434C76.5205 173.316 78.8564 175.652 81.7379 175.652C84.6194 175.652 86.9553 173.316 86.9553 170.434Z" fill="#553AFF"></path><path d="M85.6513 170.435C85.6513 168.273 83.8994 166.522 81.7382 166.522C79.5771 166.522 77.8252 168.273 77.8252 170.435C77.8252 172.596 79.5771 174.348 81.7382 174.348C83.8994 174.348 85.6513 172.596 85.6513 170.435Z" stroke="white" stroke-width="2"></path><path d="M86.9553 170.434C86.9553 167.553 84.6194 165.217 81.7379 165.217C78.8564 165.217 76.5205 167.553 76.5205 170.434C76.5205 173.316 78.8564 175.652 81.7379 175.652C84.6194 175.652 86.9553 173.316 86.9553 170.434Z" stroke="white" stroke-width="2"></path><path d="M114.781 102.608C114.781 99.7268 112.446 97.3909 109.564 97.3909C106.683 97.3909 104.347 99.7268 104.347 102.608C104.347 105.49 106.683 107.826 109.564 107.826C112.446 107.826 114.781 105.49 114.781 102.608Z" fill="#553AFF"></path><path d="M113.477 102.608C113.477 100.447 111.726 98.6954 109.564 98.6954C107.403 98.6954 105.651 100.447 105.651 102.608C105.651 104.77 107.403 106.521 109.564 106.521C111.726 106.521 113.477 104.77 113.477 102.608Z" stroke="white" stroke-width="2"></path><path d="M114.781 102.608C114.781 99.7268 112.446 97.3909 109.564 97.3909C106.683 97.3909 104.347 99.7268 104.347 102.608C104.347 105.49 106.683 107.826 109.564 107.826C112.446 107.826 114.781 105.49 114.781 102.608Z" stroke="white" stroke-width="2"></path><path d="M158.259 43.4779C158.259 40.5964 155.923 38.2605 153.042 38.2605C150.16 38.2605 147.824 40.5964 147.824 43.4779C147.824 46.3594 150.16 48.6953 153.042 48.6953C155.923 48.6953 158.259 46.3594 158.259 43.4779Z" fill="#553AFF"></path><path d="M156.955 43.4776C156.955 41.3165 155.203 39.5645 153.042 39.5645C150.881 39.5645 149.129 41.3165 149.129 43.4776C149.129 45.6387 150.881 47.3906 153.042 47.3906C155.203 47.3906 156.955 45.6387 156.955 43.4776Z" stroke="white" stroke-width="2"></path><path d="M158.259 43.4779C158.259 40.5964 155.923 38.2605 153.042 38.2605C150.16 38.2605 147.824 40.5964 147.824 43.4779C147.824 46.3594 150.16 48.6953 153.042 48.6953C155.923 48.6953 158.259 46.3594 158.259 43.4779Z" stroke="white" stroke-width="2"></path><path d="M12.1721 43.4779C12.1721 40.5964 9.83618 38.2605 6.9547 38.2605C4.07321 38.2605 1.7373 40.5964 1.7373 43.4779C1.7373 46.3594 4.07321 48.6953 6.9547 48.6953C9.83618 48.6953 12.1721 46.3594 12.1721 43.4779Z" fill="#553AFF"></path><path d="M10.8681 43.4776C10.8681 41.3165 9.11615 39.5645 6.95504 39.5645C4.79392 39.5645 3.04199 41.3165 3.04199 43.4776C3.04199 45.6387 4.79392 47.3906 6.95504 47.3906C9.11615 47.3906 10.8681 45.6387 10.8681 43.4776Z" stroke="white" stroke-width="2"></path><path d="M12.1721 43.4779C12.1721 40.5964 9.83618 38.2605 6.9547 38.2605C4.07321 38.2605 1.7373 40.5964 1.7373 43.4779C1.7373 46.3594 4.07321 48.6953 6.9547 48.6953C9.83618 48.6953 12.1721 46.3594 12.1721 43.4779Z" stroke="white" stroke-width="2"></path><path d="M59.1291 102.608C59.1291 99.7268 56.7932 97.3909 53.9117 97.3909C51.0302 97.3909 48.6943 99.7268 48.6943 102.608C48.6943 105.49 51.0302 107.826 53.9117 107.826C56.7932 107.826 59.1291 105.49 59.1291 102.608Z" fill="#553AFF"></path><path d="M57.8251 102.608C57.8251 100.447 56.0732 98.6954 53.9121 98.6954C51.751 98.6954 49.999 100.447 49.999 102.608C49.999 104.77 51.751 106.521 53.9121 106.521C56.0732 106.521 57.8251 104.77 57.8251 102.608Z" stroke="white" stroke-width="2"></path><path d="M59.1291 102.608C59.1291 99.7268 56.7932 97.3909 53.9117 97.3909C51.0302 97.3909 48.6943 99.7268 48.6943 102.608C48.6943 105.49 51.0302 107.826 53.9117 107.826C56.7932 107.826 59.1291 105.49 59.1291 102.608Z" stroke="white" stroke-width="2"></path></g><defs><clipPath id="clip0_106_530"><rect width="160" height="177.391" fill="white"></rect></clipPath></defs></svg>