<svg xmlns="http://www.w3.org/2000/svg" width="195" height="186" viewBox="0 0 195 186" fill="none"><path fill-rule="evenodd" clip-rule="evenodd" d="M68.8929 80.8038C71.3716 80.2764 72.847 77.3349 72.1885 74.2337C71.5299 71.1324 68.9867 69.0459 66.5081 69.5732C64.0294 70.1006 62.554 73.0421 63.2125 76.1434C63.8711 79.2446 66.4143 81.3311 68.8929 80.8038Z" stroke="#D6D5E2" stroke-width="2" stroke-linecap="round" stroke-linejoin="round"></path><path fill-rule="evenodd" clip-rule="evenodd" d="M73.9014 104.387C86.2946 101.75 93.5651 86.5396 90.1406 70.4132C86.7161 54.2867 73.8933 43.3512 61.5001 45.9879C49.1069 48.6247 41.8364 63.8353 45.2609 79.9617C48.6854 96.0882 61.5082 107.024 73.9014 104.387Z" stroke="#D6D5E2" stroke-width="2" stroke-linecap="round" stroke-linejoin="round"></path><path fill-rule="evenodd" clip-rule="evenodd" d="M78.1941 124.603C99.2625 120.121 111.644 94.3635 105.848 67.0726C100.053 39.7817 78.2756 21.2918 57.2072 25.7743C36.1388 30.2568 23.7575 56.0142 29.5529 83.3051C35.3482 110.596 57.1256 129.086 78.1941 124.603Z" stroke="#D6D5E2" stroke-width="2" stroke-linecap="round" stroke-linejoin="round"></path><path fill-rule="evenodd" clip-rule="evenodd" d="M82.9623 147.064C114.271 140.403 132.819 102.823 124.389 63.1272C115.96 23.4314 83.7451 -3.34846 52.436 3.31282C21.1269 9.9741 2.57936 47.554 11.009 87.2499C19.4386 126.946 51.6532 153.726 82.9623 147.064Z" stroke="#D6D5E2" stroke-width="2" stroke-linecap="round" stroke-linejoin="round"></path><path d="M49.101 4.13477C13.4499 11.5932 -4.3331 47.6475 4.55839 87.3434C13.4499 127.039 36.2664 152.485 78.2198 147.797" stroke="#D6D5E2" stroke-width="2" stroke-linecap="round" stroke-linejoin="round"></path><path d="M99.9514 140.05L107.275 165.549L102.577 167.704L94.5029 143.117" stroke="#D6D5E2" stroke-width="2" stroke-linecap="round" stroke-linejoin="round"></path><path d="M90.7705 145.168L97.9714 166.173L102.577 167.705" stroke="#D6D5E2" stroke-width="2" stroke-linecap="round" stroke-linejoin="round"></path><path d="M36.7833 140.05L34.998 183.279H40.6899L42.0311 142.942" stroke="#D6D5E2" stroke-width="2" stroke-linecap="round" stroke-linejoin="round"></path><path d="M33.7311 138.103L31.9307 180.251L34.9971 183.279" stroke="#D6D5E2" stroke-width="2" stroke-linecap="round" stroke-linejoin="round"></path><path d="M25.7977 131.608L23.0199 149.602H18.2012L22.1725 127.685" stroke="#D6D5E2" stroke-width="2" stroke-linecap="round" stroke-linejoin="round"></path><path d="M20.106 124.339L16.04 147.042L18.1925 149.602" stroke="#D6D5E2" stroke-width="2" stroke-linecap="round" stroke-linejoin="round"></path><path d="M68.9463 73.7131L168.735 36.2632" stroke="#D6D5E2" stroke-width="2" stroke-linecap="round" stroke-linejoin="round"></path><path d="M136.087 48.5017C145.995 39.3295 153.724 34.4518 159.274 33.8687C160.37 33.8687 162.33 34.9471 165.155 37.1041" stroke="#D6D5E2" stroke-width="2" stroke-linecap="round" stroke-linejoin="round"></path><path d="M136.507 48.1694C149.631 48.4581 158.479 47.0001 163.05 43.7953C163.876 43.0761 164.649 40.9749 165.367 37.4917" stroke="#D6D5E2" stroke-width="2" stroke-linecap="round" stroke-linejoin="round"></path><path d="M88.6514 42.6995L188.44 5.24951" stroke="#D6D5E2" stroke-width="2" stroke-linecap="round" stroke-linejoin="round"></path><path d="M155.792 17.4885C165.7 8.31633 173.429 3.43864 178.98 2.85547C180.075 2.85547 182.035 3.93396 184.86 6.09093" stroke="#D6D5E2" stroke-width="2" stroke-linecap="round" stroke-linejoin="round"></path><path d="M156.214 17.1558C169.338 17.4444 178.186 15.9864 182.757 12.7817C183.583 12.0625 184.356 9.96125 185.074 6.47803" stroke="#D6D5E2" stroke-width="2" stroke-linecap="round" stroke-linejoin="round"></path><path d="M93.2402 102.403L193.029 64.9531" stroke="#D6D5E2" stroke-width="2" stroke-linecap="round" stroke-linejoin="round"></path><path d="M160.381 77.1926C170.289 68.0204 178.018 63.1427 183.568 62.5596C184.664 62.5596 186.624 63.6381 189.449 65.795" stroke="#D6D5E2" stroke-width="2" stroke-linecap="round" stroke-linejoin="round"></path><path d="M160.803 76.8594C173.927 77.148 182.774 75.69 187.346 72.4853C188.172 71.7661 188.945 69.6649 189.663 66.1816" stroke="#D6D5E2" stroke-width="2" stroke-linecap="round" stroke-linejoin="round"></path><path d="M94.6311 41.3328C94.6311 38.4794 92.3201 36.1662 89.4694 36.1662C86.6186 36.1662 84.3076 38.4794 84.3076 41.3328C84.3076 44.1863 86.6186 46.4995 89.4694 46.4995C92.3201 46.4995 94.6311 44.1863 94.6311 41.3328Z" fill="#553AFF" stroke="white" stroke-width="3.72288"></path><path d="M96.3516 41.3328C96.3516 37.5282 93.2703 34.4439 89.4693 34.4439C85.6682 34.4439 82.5869 37.5282 82.5869 41.3328C82.5869 45.1374 85.6682 48.2217 89.4693 48.2217C93.2703 48.2217 96.3516 45.1374 96.3516 41.3328Z" stroke="white" stroke-width="2.48192"></path><path d="M96.6448 103.782C96.6448 100.928 94.3338 98.6149 91.4831 98.6149C88.6323 98.6149 86.3213 100.928 86.3213 103.782C86.3213 106.635 88.6323 108.948 91.4831 108.948C94.3338 108.948 96.6448 106.635 96.6448 103.782Z" fill="#553AFF" stroke="white" stroke-width="3.72288"></path><path d="M98.3653 103.782C98.3653 99.9774 95.284 96.8931 91.4829 96.8931C87.6819 96.8931 84.6006 99.9774 84.6006 103.782C84.6006 107.587 87.6819 110.671 91.4829 110.671C95.284 110.671 98.3653 107.587 98.3653 103.782Z" stroke="white" stroke-width="2.48192"></path><path d="M73.8558 75.1395C73.8558 72.286 71.5448 69.9728 68.694 69.9728C65.8432 69.9728 63.5322 72.286 63.5322 75.1395C63.5322 77.993 65.8432 80.3062 68.694 80.3062C71.5448 80.3062 73.8558 77.993 73.8558 75.1395Z" fill="#553AFF" stroke="white" stroke-width="3.72288"></path><path d="M75.5772 75.1394C75.5772 71.3348 72.4959 68.2505 68.6949 68.2505C64.8938 68.2505 61.8125 71.3348 61.8125 75.1394C61.8125 78.9441 64.8938 82.0283 68.6949 82.0283C72.4959 82.0283 75.5772 78.9441 75.5772 75.1394Z" stroke="white" stroke-width="2.48192"></path></svg>