<?xml version="1.0" encoding="utf-8"?>
<!-- Generator: Adobe Illustrator 24.3.0, SVG Export Plug-In . SVG Version: 6.00 Build 0)  -->
<svg version="1.1" id="Layer_1" xmlns="http://www.w3.org/2000/svg" xmlns:xlink="http://www.w3.org/1999/xlink" x="0px" y="0px"
	 viewBox="0 0 1200 200" style="enable-background:new 0 0 1200 200;" xml:space="preserve">
<style type="text/css">
	.st0{clip-path:url(#SVGID_2_);}
	.st1{fill:url(#SVGID_3_);}
	.st2{fill:none;}
	.st3{fill:none;stroke:#8692C9;stroke-width:3.2613;stroke-opacity:0.09;}
	.st4{fill:none;stroke:#8692C9;stroke-width:3.2613;stroke-opacity:0.1;}
	.st5{opacity:0.4;fill:none;stroke:#8692C9;stroke-width:3.2613;stroke-opacity:0.21;enable-background:new    ;}
	.st6{opacity:0.2;fill:none;stroke:#8692C9;stroke-width:3.2613;stroke-opacity:0.21;enable-background:new    ;}
	.st7{fill:none;stroke:#FFFFFF;stroke-width:3.2613;stroke-opacity:0.2;}
</style>
<g>
	<defs>
		<rect id="SVGID_1_" x="-4.57" y="-6.04" width="1210.33" height="210.53"/>
	</defs>
	<clipPath id="SVGID_2_">
		<use xlink:href="#SVGID_1_"  style="overflow:visible;"/>
	</clipPath>
	<g class="st0">
		
			<radialGradient id="SVGID_3_" cx="525.3364" cy="176.3251" r="0.5766" gradientTransform="matrix(1383.4797 0 0 -435.1844 -726191.625 76833.1484)" gradientUnits="userSpaceOnUse">
			<stop  offset="0.1198" style="stop-color:#1D1245"/>
			<stop  offset="1" style="stop-color:#564CA0"/>
		</radialGradient>
		<rect x="-4.57" y="-6.04" class="st1" width="1210.33" height="210.53"/>
		<g>
			<rect x="-4.57" y="-6.04" class="st2" width="1210.33" height="210.53"/>
		</g>
		<ellipse class="st3" cx="600.85" cy="99.03" rx="158.18" ry="38.93"/>
		<ellipse class="st4" cx="600.85" cy="99.03" rx="279.24" ry="68.73"/>
		<ellipse class="st5" cx="600.85" cy="99.03" rx="420.48" ry="103.49"/>
		<ellipse class="st6" cx="600.85" cy="99.03" rx="552.9" ry="136.08"/>
		<g>
			<path class="st7" d="M725.19,195.09h11.92"/>
			<path class="st7" d="M731.15,196.56v-2.93"/>
			<path class="st7" d="M854.81,195.09h11.92"/>
			<path class="st7" d="M860.77,196.56v-2.93"/>
			<path class="st7" d="M984.43,195.09h11.92"/>
			<path class="st7" d="M990.39,196.56v-2.93"/>
			<path class="st7" d="M1114.05,195.09h11.92"/>
			<path class="st7" d="M1120.01,196.56v-2.93"/>
			<path class="st7" d="M342.21,195.09h11.92"/>
			<path class="st7" d="M348.17,196.56v-2.93"/>
			<path class="st7" d="M82.97,195.09h11.92"/>
			<path class="st7" d="M88.93,196.56v-2.93"/>
			<path class="st7" d="M465.94,195.09h11.92"/>
			<path class="st7" d="M471.9,196.56v-2.93"/>
			<path class="st7" d="M212.59,195.09h11.92"/>
			<path class="st7" d="M218.55,196.56v-2.93"/>
			<path class="st7" d="M595.56,195.09h11.92"/>
			<path class="st7" d="M601.53,196.56v-2.93"/>
			<path class="st7" d="M725.19,163.19h11.92"/>
			<path class="st7" d="M731.15,164.65v-2.93"/>
			<path class="st7" d="M854.81,163.19h11.92"/>
			<path class="st7" d="M860.77,164.65v-2.93"/>
			<path class="st7" d="M984.43,163.19h11.92"/>
			<path class="st7" d="M990.39,164.65v-2.93"/>
			<path class="st7" d="M1114.05,163.19h11.92"/>
			<path class="st7" d="M1120.01,164.65v-2.93"/>
			<path class="st7" d="M342.21,163.19h11.92"/>
			<path class="st7" d="M348.17,164.65v-2.93"/>
			<path class="st7" d="M82.97,163.19h11.92"/>
			<path class="st7" d="M88.93,164.65v-2.93"/>
			<path class="st7" d="M465.94,163.19h11.92"/>
			<path class="st7" d="M471.9,164.65v-2.93"/>
			<path class="st7" d="M212.59,163.19h11.92"/>
			<path class="st7" d="M218.55,164.65v-2.93"/>
			<path class="st7" d="M595.56,163.19h11.92"/>
			<path class="st7" d="M601.53,164.65v-2.93"/>
			<path class="st7" d="M725.19,131.28h11.92"/>
			<path class="st7" d="M731.15,132.75v-2.93"/>
			<path class="st7" d="M725.19,3.67h11.92"/>
			<path class="st7" d="M731.15,5.14V2.2"/>
			<path class="st7" d="M854.81,131.28h11.92"/>
			<path class="st7" d="M860.77,132.75v-2.93"/>
			<path class="st7" d="M854.81,3.67h11.92"/>
			<path class="st7" d="M860.77,5.14V2.2"/>
			<path class="st7" d="M984.43,131.28h11.92"/>
			<path class="st7" d="M990.39,132.75v-2.93"/>
			<path class="st7" d="M984.43,3.67h11.92"/>
			<path class="st7" d="M990.39,5.14V2.2"/>
			<path class="st7" d="M1114.05,131.28h11.92"/>
			<path class="st7" d="M1120.01,132.75v-2.93"/>
			<path class="st7" d="M1114.05,3.67h11.92"/>
			<path class="st7" d="M1120.01,5.14V2.2"/>
			<path class="st7" d="M342.21,131.28h11.92"/>
			<path class="st7" d="M348.17,132.75v-2.93"/>
			<path class="st7" d="M342.21,3.67h11.92"/>
			<path class="st7" d="M348.17,5.14V2.2"/>
			<path class="st7" d="M82.97,131.28h11.92"/>
			<path class="st7" d="M88.93,132.75v-2.93"/>
			<path class="st7" d="M82.97,3.67h11.92"/>
			<path class="st7" d="M88.93,5.14V2.2"/>
			<path class="st7" d="M465.94,131.28h11.92"/>
			<path class="st7" d="M471.9,132.75v-2.93"/>
			<path class="st7" d="M465.94,3.67h11.92"/>
			<path class="st7" d="M471.9,5.14V2.2"/>
			<path class="st7" d="M212.59,131.28h11.92"/>
			<path class="st7" d="M218.55,132.75v-2.93"/>
			<path class="st7" d="M212.59,3.67h11.92"/>
			<path class="st7" d="M218.55,5.14V2.2"/>
			<path class="st7" d="M595.56,131.28h11.92"/>
			<path class="st7" d="M601.53,132.75v-2.93"/>
			<path class="st7" d="M595.56,3.67h11.92"/>
			<path class="st7" d="M601.53,5.14V2.2"/>
			<path class="st7" d="M725.19,99.38h11.92"/>
			<path class="st7" d="M731.15,100.85v-2.93"/>
			<path class="st7" d="M854.81,99.38h11.92"/>
			<path class="st7" d="M860.77,100.85v-2.93"/>
			<path class="st7" d="M984.43,99.38h11.92"/>
			<path class="st7" d="M990.39,100.85v-2.93"/>
			<path class="st7" d="M1114.05,99.38h11.92"/>
			<path class="st7" d="M1120.01,100.85v-2.93"/>
			<path class="st7" d="M342.21,99.38h11.92"/>
			<path class="st7" d="M348.17,100.85v-2.93"/>
			<path class="st7" d="M82.97,99.38h11.92"/>
			<path class="st7" d="M88.93,100.85v-2.93"/>
			<path class="st7" d="M465.94,99.38h11.92"/>
			<path class="st7" d="M471.9,100.85v-2.93"/>
			<path class="st7" d="M212.59,99.38h11.92"/>
			<path class="st7" d="M218.55,100.85v-2.93"/>
			<path class="st7" d="M595.56,99.38h11.92"/>
			<path class="st7" d="M601.53,100.85v-2.93"/>
			<path class="st7" d="M725.19,67.48h11.92"/>
			<path class="st7" d="M731.15,68.94v-2.93"/>
			<path class="st7" d="M854.81,67.48h11.92"/>
			<path class="st7" d="M860.77,68.94v-2.93"/>
			<path class="st7" d="M984.43,67.48h11.92"/>
			<path class="st7" d="M990.39,68.94v-2.93"/>
			<path class="st7" d="M1114.05,67.48h11.92"/>
			<path class="st7" d="M1120.01,68.94v-2.93"/>
			<path class="st7" d="M342.21,67.48h11.92"/>
			<path class="st7" d="M348.17,68.94v-2.93"/>
			<path class="st7" d="M82.97,67.48h11.92"/>
			<path class="st7" d="M88.93,68.94v-2.93"/>
			<path class="st7" d="M465.94,67.48h11.92"/>
			<path class="st7" d="M471.9,68.94v-2.93"/>
			<path class="st7" d="M212.59,67.48h11.92"/>
			<path class="st7" d="M218.55,68.94v-2.93"/>
			<path class="st7" d="M595.56,67.48h11.92"/>
			<path class="st7" d="M601.53,68.94v-2.93"/>
			<path class="st7" d="M725.19,35.57h11.92"/>
			<path class="st7" d="M731.15,37.04v-2.93"/>
			<path class="st7" d="M854.81,35.57h11.92"/>
			<path class="st7" d="M860.77,37.04v-2.93"/>
			<path class="st7" d="M984.43,35.57h11.92"/>
			<path class="st7" d="M990.39,37.04v-2.93"/>
			<path class="st7" d="M1114.05,35.57h11.92"/>
			<path class="st7" d="M1120.01,37.04v-2.93"/>
			<path class="st7" d="M342.21,35.57h11.92"/>
			<path class="st7" d="M348.17,37.04v-2.93"/>
			<path class="st7" d="M82.97,35.57h11.92"/>
			<path class="st7" d="M88.93,37.04v-2.93"/>
			<path class="st7" d="M465.94,35.57h11.92"/>
			<path class="st7" d="M471.9,37.04v-2.93"/>
			<path class="st7" d="M212.59,35.57h11.92"/>
			<path class="st7" d="M218.55,37.04v-2.93"/>
			<path class="st7" d="M595.56,35.57h11.92"/>
			<path class="st7" d="M601.53,37.04v-2.93"/>
		</g>
	</g>
</g>
</svg>
