<?xml version="1.0" encoding="utf-8"?>
<!-- Generator: Adobe Illustrator 24.3.0, SVG Export Plug-In . SVG Version: 6.00 Build 0)  -->
<svg version="1.1" id="Layer_1" xmlns="http://www.w3.org/2000/svg" xmlns:xlink="http://www.w3.org/1999/xlink" x="0px" y="0px"
	 viewBox="0 0 1200 100" style="enable-background:new 0 0 1200 100;" xml:space="preserve">
<style type="text/css">
	.st0{clip-path:url(#SVGID_2_);}
	.st1{fill:url(#SVGID_3_);}
	.st2{fill:none;}
	.st3{fill:none;stroke:#8692C9;stroke-width:3.2613;stroke-opacity:0.09;}
	.st4{fill:none;stroke:#8692C9;stroke-width:3.2613;stroke-opacity:0.1;}
	.st5{opacity:0.4;fill:none;stroke:#8692C9;stroke-width:3.2613;stroke-opacity:0.21;enable-background:new    ;}
	.st6{opacity:0.2;fill:none;stroke:#8692C9;stroke-width:3.2613;stroke-opacity:0.21;enable-background:new    ;}
	.st7{fill:none;stroke:#FFFFFF;stroke-width:3.2613;stroke-opacity:0.2;}
</style>
<g>
	<defs>
		<rect id="SVGID_1_" x="-4.57" y="-56.04" width="1210.33" height="210.53"/>
	</defs>
	<clipPath id="SVGID_2_">
		<use xlink:href="#SVGID_1_"  style="overflow:visible;"/>
	</clipPath>
	<g class="st0">
		
			<radialGradient id="SVGID_3_" cx="525.3364" cy="126.3251" r="0.5766" gradientTransform="matrix(1383.4797 0 0 -435.1844 -726191.625 55023.9297)" gradientUnits="userSpaceOnUse">
			<stop  offset="0.1198" style="stop-color:#1D1245"/>
			<stop  offset="1" style="stop-color:#564CA0"/>
		</radialGradient>
		<rect x="-4.57" y="-56.04" class="st1" width="1210.33" height="210.53"/>
		<g>
			<rect x="-4.57" y="-56.04" class="st2" width="1210.33" height="210.53"/>
		</g>
		<ellipse class="st3" cx="600.85" cy="49.03" rx="158.18" ry="38.93"/>
		<ellipse class="st4" cx="600.85" cy="49.03" rx="279.24" ry="68.73"/>
		<ellipse class="st5" cx="600.85" cy="49.03" rx="420.48" ry="103.49"/>
		<ellipse class="st6" cx="600.85" cy="49.03" rx="552.9" ry="136.08"/>
		<g>
			<path class="st7" d="M725.19,145.09h11.92"/>
			<path class="st7" d="M731.15,146.56v-2.93"/>
			<path class="st7" d="M854.81,145.09h11.92"/>
			<path class="st7" d="M860.77,146.56v-2.93"/>
			<path class="st7" d="M984.43,145.09h11.92"/>
			<path class="st7" d="M990.39,146.56v-2.93"/>
			<path class="st7" d="M1114.05,145.09h11.92"/>
			<path class="st7" d="M1120.01,146.56v-2.93"/>
			<path class="st7" d="M342.21,145.09h11.92"/>
			<path class="st7" d="M348.17,146.56v-2.93"/>
			<path class="st7" d="M82.97,145.09h11.92"/>
			<path class="st7" d="M88.93,146.56v-2.93"/>
			<path class="st7" d="M465.94,145.09h11.92"/>
			<path class="st7" d="M471.9,146.56v-2.93"/>
			<path class="st7" d="M212.59,145.09h11.92"/>
			<path class="st7" d="M218.55,146.56v-2.93"/>
			<path class="st7" d="M595.56,145.09h11.92"/>
			<path class="st7" d="M601.53,146.56v-2.93"/>
			<path class="st7" d="M725.19,113.19h11.92"/>
			<path class="st7" d="M731.15,114.65v-2.93"/>
			<path class="st7" d="M854.81,113.19h11.92"/>
			<path class="st7" d="M860.77,114.65v-2.93"/>
			<path class="st7" d="M984.43,113.19h11.92"/>
			<path class="st7" d="M990.39,114.65v-2.93"/>
			<path class="st7" d="M1114.05,113.19h11.92"/>
			<path class="st7" d="M1120.01,114.65v-2.93"/>
			<path class="st7" d="M342.21,113.19h11.92"/>
			<path class="st7" d="M348.17,114.65v-2.93"/>
			<path class="st7" d="M82.97,113.19h11.92"/>
			<path class="st7" d="M88.93,114.65v-2.93"/>
			<path class="st7" d="M465.94,113.19h11.92"/>
			<path class="st7" d="M471.9,114.65v-2.93"/>
			<path class="st7" d="M212.59,113.19h11.92"/>
			<path class="st7" d="M218.55,114.65v-2.93"/>
			<path class="st7" d="M595.56,113.19h11.92"/>
			<path class="st7" d="M601.53,114.65v-2.93"/>
			<path class="st7" d="M725.19,81.28h11.92"/>
			<path class="st7" d="M731.15,82.75v-2.93"/>
			<path class="st7" d="M725.19-46.33h11.92"/>
			<path class="st7" d="M731.15-44.86v-2.93"/>
			<path class="st7" d="M854.81,81.28h11.92"/>
			<path class="st7" d="M860.77,82.75v-2.93"/>
			<path class="st7" d="M854.81-46.33h11.92"/>
			<path class="st7" d="M860.77-44.86v-2.93"/>
			<path class="st7" d="M984.43,81.28h11.92"/>
			<path class="st7" d="M990.39,82.75v-2.93"/>
			<path class="st7" d="M984.43-46.33h11.92"/>
			<path class="st7" d="M990.39-44.86v-2.93"/>
			<path class="st7" d="M1114.05,81.28h11.92"/>
			<path class="st7" d="M1120.01,82.75v-2.93"/>
			<path class="st7" d="M1114.05-46.33h11.92"/>
			<path class="st7" d="M1120.01-44.86v-2.93"/>
			<path class="st7" d="M342.21,81.28h11.92"/>
			<path class="st7" d="M348.17,82.75v-2.93"/>
			<path class="st7" d="M342.21-46.33h11.92"/>
			<path class="st7" d="M348.17-44.86v-2.93"/>
			<path class="st7" d="M82.97,81.28h11.92"/>
			<path class="st7" d="M88.93,82.75v-2.93"/>
			<path class="st7" d="M82.97-46.33h11.92"/>
			<path class="st7" d="M88.93-44.86v-2.93"/>
			<path class="st7" d="M465.94,81.28h11.92"/>
			<path class="st7" d="M471.9,82.75v-2.93"/>
			<path class="st7" d="M465.94-46.33h11.92"/>
			<path class="st7" d="M471.9-44.86v-2.93"/>
			<path class="st7" d="M212.59,81.28h11.92"/>
			<path class="st7" d="M218.55,82.75v-2.93"/>
			<path class="st7" d="M212.59-46.33h11.92"/>
			<path class="st7" d="M218.55-44.86v-2.93"/>
			<path class="st7" d="M595.56,81.28h11.92"/>
			<path class="st7" d="M601.53,82.75v-2.93"/>
			<path class="st7" d="M595.56-46.33h11.92"/>
			<path class="st7" d="M601.53-44.86v-2.93"/>
			<path class="st7" d="M725.19,49.38h11.92"/>
			<path class="st7" d="M731.15,50.85v-2.93"/>
			<path class="st7" d="M854.81,49.38h11.92"/>
			<path class="st7" d="M860.77,50.85v-2.93"/>
			<path class="st7" d="M984.43,49.38h11.92"/>
			<path class="st7" d="M990.39,50.85v-2.93"/>
			<path class="st7" d="M1114.05,49.38h11.92"/>
			<path class="st7" d="M1120.01,50.85v-2.93"/>
			<path class="st7" d="M342.21,49.38h11.92"/>
			<path class="st7" d="M348.17,50.85v-2.93"/>
			<path class="st7" d="M82.97,49.38h11.92"/>
			<path class="st7" d="M88.93,50.85v-2.93"/>
			<path class="st7" d="M465.94,49.38h11.92"/>
			<path class="st7" d="M471.9,50.85v-2.93"/>
			<path class="st7" d="M212.59,49.38h11.92"/>
			<path class="st7" d="M218.55,50.85v-2.93"/>
			<path class="st7" d="M595.56,49.38h11.92"/>
			<path class="st7" d="M601.53,50.85v-2.93"/>
			<path class="st7" d="M725.19,17.48h11.92"/>
			<path class="st7" d="M731.15,18.94v-2.93"/>
			<path class="st7" d="M854.81,17.48h11.92"/>
			<path class="st7" d="M860.77,18.94v-2.93"/>
			<path class="st7" d="M984.43,17.48h11.92"/>
			<path class="st7" d="M990.39,18.94v-2.93"/>
			<path class="st7" d="M1114.05,17.48h11.92"/>
			<path class="st7" d="M1120.01,18.94v-2.93"/>
			<path class="st7" d="M342.21,17.48h11.92"/>
			<path class="st7" d="M348.17,18.94v-2.93"/>
			<path class="st7" d="M82.97,17.48h11.92"/>
			<path class="st7" d="M88.93,18.94v-2.93"/>
			<path class="st7" d="M465.94,17.48h11.92"/>
			<path class="st7" d="M471.9,18.94v-2.93"/>
			<path class="st7" d="M212.59,17.48h11.92"/>
			<path class="st7" d="M218.55,18.94v-2.93"/>
			<path class="st7" d="M595.56,17.48h11.92"/>
			<path class="st7" d="M601.53,18.94v-2.93"/>
			<path class="st7" d="M725.19-14.43h11.92"/>
			<path class="st7" d="M731.15-12.96v-2.93"/>
			<path class="st7" d="M854.81-14.43h11.92"/>
			<path class="st7" d="M860.77-12.96v-2.93"/>
			<path class="st7" d="M984.43-14.43h11.92"/>
			<path class="st7" d="M990.39-12.96v-2.93"/>
			<path class="st7" d="M1114.05-14.43h11.92"/>
			<path class="st7" d="M1120.01-12.96v-2.93"/>
			<path class="st7" d="M342.21-14.43h11.92"/>
			<path class="st7" d="M348.17-12.96v-2.93"/>
			<path class="st7" d="M82.97-14.43h11.92"/>
			<path class="st7" d="M88.93-12.96v-2.93"/>
			<path class="st7" d="M465.94-14.43h11.92"/>
			<path class="st7" d="M471.9-12.96v-2.93"/>
			<path class="st7" d="M212.59-14.43h11.92"/>
			<path class="st7" d="M218.55-12.96v-2.93"/>
			<path class="st7" d="M595.56-14.43h11.92"/>
			<path class="st7" d="M601.53-12.96v-2.93"/>
		</g>
	</g>
</g>
</svg>
